<svg width="153" height="67" viewBox="0 0 153 67" fill="none" xmlns="http://www.w3.org/2000/svg">
<path d="M26 19.8593C48.959 1.41107 104.438 -20.6553 142.58 38.0204L148.674 29.9999H153L142.58 44.2333C126.691 19.8896 91.043 -20.4971 26 19.8593Z" fill="#CF2C31"/>
<path d="M0 28.9999V51.9999H4.84766V42.499H14.6855V51.9999H19.5215V28.9999H14.6855V38.4902H4.84766V28.9999H0Z" fill="#CF2C31"/>
<path d="M23.5176 51.9999V28.9999H38.9668V33.0097H28.3652V38.4902H38.1719V42.499H28.3652V47.9902H39.0117V51.9999H23.5176Z" fill="#CF2C31"/>
<path fill-rule="evenodd" clip-rule="evenodd" d="M41.5762 51.9999H46.7715L48.4727 46.7558H56.75L58.4473 51.9999H63.6406L55.7383 28.9999H49.4922L41.5762 51.9999ZM55.5195 42.9589L52.7031 34.2558H52.5254L49.7031 42.9589H55.5195Z" fill="#CF2C31"/>
<path d="M66.4004 51.9999V28.9999H71.2461V47.9902H81.0742V51.9999H66.4004Z" fill="#CF2C31"/>
<path d="M80.5488 28.9999V33.0097H87.5684V51.9999H92.3594V33.0097H99.377V28.9999H80.5488Z" fill="#CF2C31"/>
<path d="M102.479 51.9999V28.9999H107.324V38.4902H117.164V28.9999H122V51.9999H117.164V42.499H107.324V51.9999H102.479Z" fill="#CF2C31"/>
<path d="M21.6582 57.9999V61.4814H25.2559V57.9999H26.9141V66.9999H25.2559V62.9921H21.6582V66.9999H20V57.9999H21.6582Z" fill="#CF2C31"/>
<path d="M38.7676 57.9999V59.5117H35.5645V61.5214H38.6348V63.0331H35.5645V65.4882H38.7676V66.9999H33.8301V57.9999H38.7676Z" fill="#CF2C31"/>
<path d="M45.6836 57.9999H47.2109V65.4882H49.6348V66.9999H45.6836V57.9999Z" fill="#CF2C31"/>
<path fill-rule="evenodd" clip-rule="evenodd" d="M56.5488 57.9999H59.1738C59.7324 57.9999 60.1895 58.0497 60.541 58.1484C60.9023 58.2382 61.2402 58.4179 61.5547 58.6884C62.168 59.2275 62.4766 59.9521 62.4766 60.8603C62.4766 61.706 62.2266 62.3759 61.7305 62.871C61.5195 63.082 61.2715 63.2509 60.9883 63.3779C60.5566 63.5703 60.043 63.6669 59.4453 63.6669H58.3086V66.9999H56.5488V57.9999ZM58.3086 59.5117V62.1562H59.0254C59.2188 62.1562 59.3945 62.1425 59.5508 62.1161C59.8086 62.0722 60.0176 61.9902 60.1758 61.873C60.5 61.621 60.6621 61.2695 60.6621 60.8203C60.6621 60.3788 60.4961 60.037 60.1621 59.7949C59.8906 59.6054 59.4766 59.5117 58.916 59.5117H58.3086Z" fill="#CF2C31"/>
<path d="M74.3301 57.9999V59.5117H71.125V61.5214H74.1953V63.0331H71.125V65.4882H74.3301V66.9999H69.3906V57.9999H74.3301Z" fill="#CF2C31"/>
<path fill-rule="evenodd" clip-rule="evenodd" d="M81.2441 57.9999H83.9902C85.0332 57.9999 85.8398 58.2245 86.4082 58.6747C87.0352 59.1786 87.3477 59.8535 87.3477 60.6982C87.3477 61.6337 86.9785 62.3398 86.2383 62.8173C85.9531 63.0058 85.6074 63.1367 85.1992 63.2079L88.1582 66.9999H85.8535L83.3203 63.3837H83.0938V66.9999H81.2441V57.9999ZM83.0938 59.4306V62.1425H83.6191C83.7188 62.1425 83.8164 62.1386 83.9102 62.1308L84.0605 62.1152C84.2129 62.0888 84.4062 62.039 84.6445 61.9667C84.8809 61.8857 85.0703 61.747 85.2129 61.5488C85.291 61.4413 85.3496 61.3212 85.3887 61.1874C85.4141 61.0995 85.4297 61.0058 85.4375 60.9062L85.4414 60.7792C85.4414 60.6181 85.4219 60.4726 85.3828 60.3417C85.3477 60.2236 85.2949 60.1181 85.2285 60.0244C85.0859 59.8173 84.8965 59.6777 84.6582 59.6054C84.4219 59.5244 84.2324 59.4755 84.0898 59.457C83.9473 59.4394 83.8008 59.4306 83.6484 59.4306H83.0938Z" fill="#CF2C31"/>
<path d="M100.691 59.0068L99.8203 60.1562C99.5957 59.8574 99.334 59.6484 99.0371 59.5312C98.8477 59.457 98.6426 59.4199 98.4219 59.4199C98.2129 59.4199 98.0332 59.4462 97.8809 59.4999C97.7344 59.5517 97.6152 59.6288 97.5234 59.7304C97.4102 59.8505 97.332 59.9824 97.2871 60.1269C97.2695 60.1826 97.2578 60.2392 97.25 60.2988C97.2441 60.3408 97.2422 60.3837 97.2422 60.4277L97.2461 60.496C97.25 60.5624 97.2637 60.6259 97.2832 60.6845C97.3008 60.7343 97.3223 60.7812 97.3516 60.8261C97.3926 60.8925 97.4453 60.9531 97.5098 61.0087C97.6484 61.1376 97.9902 61.3017 98.5371 61.499C99.3828 61.7919 99.9609 62.08 100.27 62.3642C100.756 62.8036 101 63.4062 101 64.1718C101 65.0156 100.723 65.7001 100.166 66.2255C99.6191 66.7421 98.9043 66.9999 98.0234 66.9999C96.793 66.9999 95.8086 66.4579 95.0723 65.373L96.1641 64.3271C96.2578 64.5214 96.3711 64.6913 96.502 64.8359C96.6309 64.9794 96.7793 65.0976 96.9453 65.1923C97.2793 65.3818 97.6172 65.4765 97.959 65.4765C98.3438 65.4765 98.6602 65.3691 98.9082 65.1533C99.1562 64.9296 99.2812 64.6415 99.2812 64.288C99.2812 63.9872 99.1699 63.7285 98.9473 63.5136C98.7422 63.3242 98.3008 63.1132 97.627 62.8808C97.375 62.7949 97.1484 62.704 96.9473 62.6074C96.6406 62.4619 96.3926 62.3027 96.2012 62.1318C95.748 61.7363 95.5215 61.2021 95.5215 60.5312C95.5215 59.8339 95.7578 59.2392 96.2285 58.749C96.4766 58.4853 96.7832 58.291 97.1484 58.1669C97.4746 58.0556 97.8477 57.9999 98.2676 57.9999C99.2344 57.9999 100.043 58.3359 100.691 59.0068Z" fill="#CF2C31"/>
</svg>
