<svg width="25" height="25" viewBox="0 0 25 25" fill="none" xmlns="http://www.w3.org/2000/svg">
<path d="M17.485 24.5C17.0115 24.5 16.6484 24.4684 16.3958 24.4051C14.1544 24.0254 11.6288 22.4274 8.81905 19.6111L5.55156 16.431C2.58399 13.5514 0.926562 11.0516 0.579292 8.9315C0.200452 6.40004 1.17912 3.94768 3.5153 1.57443C4.02042 1.00485 4.4624 0.6726 4.84124 0.57767C5.50421 0.38781 6.08825 0.546027 6.59337 1.05232L6.68808 1.14725L9.7188 5.03937C10.0661 5.67224 10.1924 6.226 10.0976 6.70065C9.81351 7.11201 9.51359 7.44426 9.19789 7.69741C8.21922 8.58342 7.77724 9.61183 7.87195 10.7826C7.96666 11.8269 8.456 12.6971 9.33996 13.3932L11.6604 15.7665C12.5443 16.6525 13.4441 17.0955 14.3596 17.0955C15.4961 17.1904 16.4906 16.6999 17.3429 15.6241C17.7218 15.2127 18.0533 14.9279 18.3374 14.7697C18.7794 14.5798 19.3003 14.6748 19.9001 15.0545L23.8779 18.0922C24.4146 18.6302 24.604 19.2156 24.4462 19.8484C24.3515 20.2598 24.0358 20.7344 23.4991 21.2724C21.6365 23.4241 19.6318 24.5 17.485 24.5Z" fill="#184895"/>
</svg>
